# Blender 3.4.1
# www.blender.org
mtllib Boat.mtl
o Boat
v 0.000394 0.000000 -2.128681
v -0.130919 0.000000 -2.130480
v -0.173769 0.000000 -1.630599
v -0.217227 0.000000 -0.882474
v -0.235130 0.000000 0.000000
v -0.217227 0.000000 0.882474
v -0.129240 0.000000 1.630599
v -0.073555 0.000000 1.789241
v 0.000067 0.000000 1.909710
v 0.073688 0.000000 1.789241
v 0.129374 0.000000 1.630599
v 0.217360 0.000000 0.882474
v 0.235263 0.000000 0.000000
v 0.217360 0.000000 -0.882474
v 0.173903 0.000000 -1.630599
v 0.131052 0.000000 -2.130480
v 0.001228 0.366323 -1.476012
v -0.440390 0.366323 -1.477525
v -0.563848 0.366323 -1.117204
v -0.712874 0.366323 -0.475357
v -0.772386 0.366323 0.258542
v -0.713591 0.366323 0.983595
v -0.546157 0.366323 1.598266
v -0.290610 0.366323 2.017110
v 0.000011 0.366323 2.247505
v 0.290632 0.366323 2.017110
v 0.546178 0.366323 1.598266
v 0.713613 0.366323 0.983595
v 0.772408 0.366323 0.258542
v 0.712896 0.366323 -0.475357
v 0.563870 0.366323 -1.117204
v 0.440412 0.366323 -1.477525
v -0.556920 0.366323 -2.130480
v 0.001392 0.366323 -2.128681
v -0.739110 0.366323 -1.630599
v -0.923880 0.366323 -0.882474
v -1.000000 0.366323 0.000000
v -0.923880 0.366323 0.882474
v -0.707107 0.366323 1.630599
v -0.382683 0.366323 2.130480
v 0.000000 0.366323 2.415687
v 0.382683 0.366323 2.130480
v 0.707107 0.366323 1.630599
v 0.923880 0.366323 0.882474
v 1.000000 0.366323 0.000000
v 0.923880 0.366323 -0.882474
v 0.739110 0.366323 -1.630599
v 0.556920 0.366323 -2.130480
v -0.440390 0.366323 -1.477525
v 0.001228 0.366323 -1.476012
v -0.563848 0.366323 -1.117204
v -0.712874 0.366323 -0.475357
v -0.772386 0.366323 0.258542
v -0.713591 0.366323 0.983595
v -0.546157 0.366323 1.598266
v -0.290610 0.366323 2.017110
v 0.000011 0.366323 2.247505
v 0.290632 0.366323 2.017110
v 0.546178 0.366323 1.598266
v 0.713613 0.366323 0.983595
v 0.772408 0.366323 0.258542
v 0.712896 0.366323 -0.475357
v 0.563870 0.366323 -1.117204
v 0.440412 0.366323 -1.477525
v -0.253725 0.171412 -1.328631
v 0.000745 0.171412 -1.327246
v -0.324864 0.171412 -0.998980
v -0.410735 0.171412 -0.411770
v -0.445027 0.171412 0.259657
v -0.411148 0.171412 0.922992
v -0.314669 0.171412 1.485340
v -0.167418 0.171412 1.868531
v 0.000043 0.171412 2.079314
v 0.167505 0.171412 1.868531
v 0.314756 0.171412 1.485340
v 0.411235 0.171412 0.922992
v 0.445114 0.171412 0.259657
v 0.410821 0.171412 -0.411770
v 0.324950 0.171412 -0.998980
v 0.253811 0.171412 -1.328630
v -0.308570 0.183808 1.273828
v -0.725679 0.361253 1.273828
v -0.308570 0.183808 0.968449
v -0.725679 0.361253 0.968449
v 0.308570 0.183808 1.273828
v 0.725679 0.361253 1.273828
v 0.308570 0.183808 0.968449
v 0.725679 0.361253 0.968449
v -0.308570 0.183808 0.229870
v -0.725679 0.361253 0.229870
v -0.308570 0.183808 -0.075510
v -0.725679 0.361253 -0.075509
v 0.308570 0.183808 0.229870
v 0.725679 0.361253 0.229870
v 0.308570 0.183808 -0.075510
v 0.725679 0.361253 -0.075509
v -0.308570 0.183808 -0.881678
v -0.725679 0.361253 -0.881678
v -0.308570 0.183808 -1.187057
v -0.725679 0.361253 -1.187057
v 0.308570 0.183808 -0.881678
v 0.725679 0.361253 -0.881678
v 0.308570 0.183808 -1.187057
v 0.725679 0.361253 -1.187057
vn -0.0000 -1.0000 -0.0000
vn -0.0000 1.0000 -0.0000
vn 0.4456 -0.8949 0.0237
vn -0.4456 -0.8949 0.0237
vn 0.4456 -0.8949 -0.0237
vn -0.4929 -0.8643 0.1004
vn 0.4977 -0.8640 -0.0759
vn -0.5328 -0.7883 0.3076
vn 0.5892 -0.7970 -0.1326
vn -0.4371 -0.7531 0.4917
vn 0.0052 0.0030 -1.0000
vn -0.0052 0.0031 -1.0000
vn 0.4372 -0.7530 0.4918
vn -0.5891 -0.7971 -0.1326
vn 0.5329 -0.7883 0.3076
vn -0.4977 -0.8640 -0.0759
vn 0.4930 -0.8642 0.1004
vn -0.4456 -0.8949 -0.0237
vn 0.6051 0.7776 0.1707
vn -0.5970 0.7441 -0.2998
vn 0.5574 0.8234 0.1065
vn -0.5583 0.8202 -0.1252
vn 0.5236 0.8513 0.0349
vn -0.5237 0.8512 -0.0350
vn 0.5236 0.8513 -0.0349
vn -0.5236 0.8512 0.0350
vn 0.5582 0.8202 -0.1252
vn -0.5575 0.8233 0.1065
vn 0.5969 0.7442 -0.2998
vn -0.6052 0.7776 0.1707
vn 0.5405 0.6269 -0.5612
vn -0.0033 0.6059 0.7955
vn 0.0033 0.6059 0.7956
vn -0.5405 0.6268 -0.5612
vn -0.0951 0.4763 -0.8741
vn 0.1261 0.6506 -0.7489
vn -0.3915 -0.9202 -0.0000
vn -0.0000 -0.0000 -1.0000
vn 0.3915 -0.9202 -0.0000
vn -0.0000 -0.0000 1.0000
vt 0.000000 0.000000
vt 0.000000 0.000000
vt 0.000000 0.000000
vt 0.000000 0.000000
vt 0.000000 0.000000
vt 0.000000 0.000000
vt 0.000000 0.000000
vt 0.000000 0.000000
vt 0.000000 0.000000
vt 0.000000 0.000000
vt 0.000000 0.000000
vt 0.000000 0.000000
vt 0.000000 0.000000
vt 0.000000 0.000000
vt 0.000000 0.000000
vt 0.000000 0.000000
vt 0.000000 0.000000
vt 0.000000 0.000000
vt 0.000000 0.000000
vt 0.000000 0.000000
vt 0.000000 0.000000
vt 0.000000 0.000000
vt 0.000000 0.000000
vt 0.000000 0.000000
vt 0.000000 0.000000
vt 0.000000 0.000000
vt 0.000000 0.000000
vt 0.000000 0.000000
vt 0.000000 0.000000
vt 0.000000 0.000000
vt 0.000000 0.000000
vt 0.000000 0.000000
vt 0.000000 0.000000
vt 0.000000 0.000000
vt 0.000000 0.000000
vt 0.000000 0.000000
vt 0.000000 0.000000
vt 0.000000 0.000000
vt 0.000000 0.000000
vt 0.000000 0.000000
vt 0.000000 0.000000
vt 0.000000 0.000000
vt 0.000000 0.000000
vt 0.000000 0.000000
vt 0.000000 0.000000
vt 0.000000 0.000000
vt 0.000000 0.000000
vt 0.000000 0.000000
vt 0.000000 0.000000
vt 0.000000 0.000000
vt 0.000000 0.000000
vt 0.000000 0.000000
vt 0.000000 0.000000
vt 0.000000 0.000000
vt 0.000000 0.000000
vt 0.000000 0.000000
vt 0.000000 0.000000
vt 0.000000 0.000000
vt 0.000000 0.000000
vt 0.000000 0.000000
vt 0.000000 0.000000
vt 0.000000 0.000000
vt 0.000000 0.000000
vt 0.000000 0.000000
vt 0.000000 0.000000
vt 0.000000 0.000000
vt 0.000000 0.000000
vt 0.000000 0.000000
vt 0.000000 0.000000
vt 0.000000 0.000000
vt 0.000000 0.000000
vt 0.000000 0.000000
vt 0.000000 0.000000
vt 0.000000 0.000000
vt 0.000000 0.000000
vt 0.000000 0.000000
vt 0.000000 0.000000
vt 0.000000 0.000000
vt 0.000000 0.000000
vt 0.000000 0.000000
vt 0.375000 0.000000
vt 0.375000 1.000000
vt 0.125000 0.750000
vt 0.625000 0.000000
vt 0.625000 1.000000
vt 0.875000 0.750000
vt 0.375000 0.250000
vt 0.125000 0.500000
vt 0.625000 0.250000
vt 0.875000 0.500000
vt 0.375000 0.750000
vt 0.625000 0.750000
vt 0.375000 0.500000
vt 0.625000 0.500000
vt 0.375000 0.000000
vt 0.375000 1.000000
vt 0.125000 0.750000
vt 0.625000 0.000000
vt 0.625000 1.000000
vt 0.875000 0.750000
vt 0.375000 0.250000
vt 0.125000 0.500000
vt 0.625000 0.250000
vt 0.875000 0.500000
vt 0.375000 0.750000
vt 0.625000 0.750000
vt 0.375000 0.500000
vt 0.625000 0.500000
vt 0.375000 0.000000
vt 0.375000 1.000000
vt 0.125000 0.750000
vt 0.625000 0.000000
vt 0.625000 1.000000
vt 0.875000 0.750000
vt 0.375000 0.250000
vt 0.125000 0.500000
vt 0.625000 0.250000
vt 0.875000 0.500000
vt 0.375000 0.750000
vt 0.625000 0.750000
vt 0.375000 0.500000
vt 0.625000 0.500000
s 0
usemtl Material.010
f 2/2/1 1/1/1 16/16/1 15/15/1 14/14/1 13/13/1 12/12/1 11/11/1 10/10/1 9/9/1 8/8/1 7/7/1 6/6/1 5/5/1 4/4/1 3/3/1
f 28/28/2 29/29/2 61/61/2 60/60/2
f 12/12/3 13/13/3 45/45/3 44/44/3
f 5/5/4 6/6/4 38/38/4 37/37/4
f 13/13/5 14/14/5 46/46/5 45/45/5
f 6/6/6 7/7/6 39/39/6 38/38/6
f 14/14/7 15/15/7 47/47/7 46/46/7
f 7/7/8 8/8/8 40/40/8 39/39/8
f 15/15/9 16/16/9 48/48/9 47/47/9
f 8/8/10 9/9/10 41/41/10 40/40/10
f 1/1/11 2/2/11 33/33/11 34/34/11
f 16/16/12 1/1/12 34/34/12 48/48/12
f 9/9/13 10/10/13 42/42/13 41/41/13
f 2/2/14 3/3/14 35/35/14 33/33/14
f 10/10/15 11/11/15 43/43/15 42/42/15
f 3/3/16 4/4/16 36/36/16 35/35/16
f 11/11/17 12/12/17 44/44/17 43/43/17
f 4/4/18 5/5/18 37/37/18 36/36/18
f 18/18/2 17/17/2 34/34/2 33/33/2
f 19/19/2 18/18/2 33/33/2 35/35/2
f 20/20/2 19/19/2 35/35/2 36/36/2
f 21/21/2 20/20/2 36/36/2 37/37/2
f 22/22/2 21/21/2 37/37/2 38/38/2
f 23/23/2 22/22/2 38/38/2 39/39/2
f 24/24/2 23/23/2 39/39/2 40/40/2
f 25/25/2 24/24/2 40/40/2 41/41/2
f 26/26/2 25/25/2 41/41/2 42/42/2
f 27/27/2 26/26/2 42/42/2 43/43/2
f 28/28/2 27/27/2 43/43/2 44/44/2
f 29/29/2 28/28/2 44/44/2 45/45/2
f 30/30/2 29/29/2 45/45/2 46/46/2
f 31/31/2 30/30/2 46/46/2 47/47/2
f 32/32/2 31/31/2 47/47/2 48/48/2
f 17/17/2 32/32/2 48/48/2 34/34/2
f 49/49/19 51/51/19 67/67/19 65/65/19
f 21/21/2 22/22/2 54/54/2 53/53/2
f 29/29/2 30/30/2 62/62/2 61/61/2
f 22/22/2 23/23/2 55/55/2 54/54/2
f 30/30/2 31/31/2 63/63/2 62/62/2
f 23/23/2 24/24/2 56/56/2 55/55/2
f 31/31/2 32/32/2 64/64/2 63/63/2
f 24/24/2 25/25/2 57/57/2 56/56/2
f 17/17/2 18/18/2 49/49/2 50/50/2
f 32/32/2 17/17/2 50/50/2 64/64/2
f 25/25/2 26/26/2 58/58/2 57/57/2
f 18/18/2 19/19/2 51/51/2 49/49/2
f 26/26/2 27/27/2 59/59/2 58/58/2
f 19/19/2 20/20/2 52/52/2 51/51/2
f 27/27/2 28/28/2 60/60/2 59/59/2
f 20/20/2 21/21/2 53/53/2 52/52/2
f 65/65/2 67/67/2 68/68/2 69/69/2 70/70/2 71/71/2 72/72/2 73/73/2 74/74/2 75/75/2 76/76/2 77/77/2 78/78/2 79/79/2 80/80/2 66/66/2
f 58/58/20 59/59/20 75/75/20 74/74/20
f 51/51/21 52/52/21 68/68/21 67/67/21
f 59/59/22 60/60/22 76/76/22 75/75/22
f 52/52/23 53/53/23 69/69/23 68/68/23
f 60/60/24 61/61/24 77/77/24 76/76/24
f 53/53/25 54/54/25 70/70/25 69/69/25
f 61/61/26 62/62/26 78/78/26 77/77/26
f 54/54/27 55/55/27 71/71/27 70/70/27
f 62/62/28 63/63/28 79/79/28 78/78/28
f 55/55/29 56/56/29 72/72/29 71/71/29
f 63/63/30 64/64/30 80/80/30 79/79/30
f 56/56/31 57/57/31 73/73/31 72/72/31
f 50/50/32 49/49/32 65/65/32 66/66/32
f 64/64/33 50/50/33 66/66/33 80/80/33
f 57/57/34 58/58/34 74/74/34 73/73/34
f 10/10/35 8/8/35 40/40/35 24/24/35 56/56/35 72/72/35 42/42/35
f 42/42/36 72/72/36 56/56/36
f 40/40/2 42/42/2 56/56/2 24/24/2
f 25/25/1 24/24/1 26/26/1 58/58/1 57/57/1
usemtl Material.009
f 81/81/37 82/84/37 84/89/37 83/87/37
f 83/87/38 84/89/38 88/94/38 87/93/38
f 87/93/39 88/94/39 86/92/39 85/91/39
f 85/91/40 86/92/40 82/85/40 81/82/40
f 83/88/1 87/93/1 85/91/1 81/83/1
f 88/94/2 84/90/2 82/86/2 86/92/2
f 89/95/37 90/98/37 92/103/37 91/101/37
f 91/101/38 92/103/38 96/108/38 95/107/38
f 95/107/39 96/108/39 94/106/39 93/105/39
f 93/105/40 94/106/40 90/99/40 89/96/40
f 91/102/1 95/107/1 93/105/1 89/97/1
f 96/108/2 92/104/2 90/100/2 94/106/2
f 97/109/37 98/112/37 100/117/37 99/115/37
f 99/115/38 100/117/38 104/122/38 103/121/38
f 103/121/39 104/122/39 102/120/39 101/119/39
f 101/119/40 102/120/40 98/113/40 97/110/40
f 99/116/1 103/121/1 101/119/1 97/111/1
f 104/122/2 100/118/2 98/114/2 102/120/2
